<?xml version="1.0" encoding="UTF-8"?>
<svg width="1180px" height="299px" viewBox="0 0 1180 299" version="1.1" xmlns="http://www.w3.org/2000/svg" xmlns:xlink="http://www.w3.org/1999/xlink">
    <!-- Generator: sketchtool 63.1 (101010) - https://sketch.com -->
    <title>E413A5A0-433B-4747-9E4B-67EF276B62A5</title>
    <desc>Created with sketchtool.</desc>
    <defs>
        <rect id="path-1" x="0" y="0" width="1180" height="299" rx="8"></rect>
        <rect id="path-3" x="0" y="0" width="762" height="147"></rect>
        <linearGradient x1="26.4720129%" y1="61.7797454%" x2="62.818321%" y2="61.7797454%" id="linearGradient-5">
            <stop stop-color="#B4D8E4" offset="0%"></stop>
            <stop stop-color="#A2C7D3" offset="100%"></stop>
        </linearGradient>
        <path d="M103.465312,139.500112 C314.770421,88.9634983 378.877566,8.01846653 384.199805,5.44444444 C387.747964,3.72842972 390.316716,1.91361491 391.906061,0 C396.445547,3.26666667 401.645978,4.9 407.507352,4.9 C409.237855,5.47837325 411.519447,7.17767297 414.457626,7.66688368 C415.209208,7.79202319 416.443064,7.58466641 418.159194,7.04481337 C429.450222,23.2289114 442.208336,32.5962782 456.433535,35.1469136 C460.224166,35.1469136 463.17486,34.5016461 465.285619,33.2111111 L469.504897,37.1838542 L473.475419,35.1469136 C479.222089,46.1990975 490.937697,53.8700772 508.622243,58.1598524 C511.152321,60.179316 516.428211,60.4225489 523.199958,64.8060304 C547.91268,80.8030486 588.915895,92.4198375 646.209604,99.656397 L761.455714,152.559583 L114.617334,152.559583 C-33.6874197,177.544344 -37.40476,173.191187 103.465312,139.500112 Z" id="path-6"></path>
        <linearGradient x1="50%" y1="0%" x2="50%" y2="100%" id="linearGradient-8">
            <stop stop-color="#F5FAFF" offset="0%"></stop>
            <stop stop-color="#FFFFFF" offset="100%"></stop>
        </linearGradient>
        <linearGradient x1="50%" y1="0%" x2="50%" y2="100%" id="linearGradient-9">
            <stop stop-color="#000000" stop-opacity="0" offset="0%"></stop>
            <stop stop-color="#000000" stop-opacity="0.0458842844" offset="100%"></stop>
        </linearGradient>
        <filter x="-122.0%" y="-1500.0%" width="343.9%" height="3100.0%" filterUnits="objectBoundingBox" id="filter-10">
            <feGaussianBlur stdDeviation="50 0" in="SourceGraphic"></feGaussianBlur>
        </filter>
        <filter x="-230.8%" y="-882.4%" width="561.5%" height="1864.7%" filterUnits="objectBoundingBox" id="filter-11">
            <feGaussianBlur stdDeviation="50 0" in="SourceGraphic"></feGaussianBlur>
        </filter>
        <filter x="-123.0%" y="-789.5%" width="345.9%" height="1678.9%" filterUnits="objectBoundingBox" id="filter-12">
            <feGaussianBlur stdDeviation="50 0" in="SourceGraphic"></feGaussianBlur>
        </filter>
        <filter x="-66.1%" y="-789.5%" width="232.2%" height="1678.9%" filterUnits="objectBoundingBox" id="filter-13">
            <feGaussianBlur stdDeviation="50 0" in="SourceGraphic"></feGaussianBlur>
        </filter>
        <filter x="-66.1%" y="-789.5%" width="232.2%" height="1678.9%" filterUnits="objectBoundingBox" id="filter-14">
            <feGaussianBlur stdDeviation="50 0" in="SourceGraphic"></feGaussianBlur>
        </filter>
        <filter x="-69.4%" y="-789.5%" width="238.9%" height="1678.9%" filterUnits="objectBoundingBox" id="filter-15">
            <feGaussianBlur stdDeviation="50 0" in="SourceGraphic"></feGaussianBlur>
        </filter>
        <filter x="-69.4%" y="-1500.0%" width="238.9%" height="3100.0%" filterUnits="objectBoundingBox" id="filter-16">
            <feGaussianBlur stdDeviation="50 0" in="SourceGraphic"></feGaussianBlur>
        </filter>
        <filter x="-230.8%" y="-3000.0%" width="561.5%" height="6100.0%" filterUnits="objectBoundingBox" id="filter-17">
            <feGaussianBlur stdDeviation="50 0" in="SourceGraphic"></feGaussianBlur>
        </filter>
        <filter x="-94.3%" y="-3000.0%" width="288.7%" height="6100.0%" filterUnits="objectBoundingBox" id="filter-18">
            <feGaussianBlur stdDeviation="50 0" in="SourceGraphic"></feGaussianBlur>
        </filter>
        <filter x="-69.4%" y="-1500.0%" width="238.9%" height="3100.0%" filterUnits="objectBoundingBox" id="filter-19">
            <feGaussianBlur stdDeviation="50 0" in="SourceGraphic"></feGaussianBlur>
        </filter>
        <filter x="-51.2%" y="-789.5%" width="202.4%" height="1678.9%" filterUnits="objectBoundingBox" id="filter-20">
            <feGaussianBlur stdDeviation="50 0" in="SourceGraphic"></feGaussianBlur>
        </filter>
        <filter x="-94.3%" y="-789.5%" width="288.7%" height="1678.9%" filterUnits="objectBoundingBox" id="filter-21">
            <feGaussianBlur stdDeviation="50 0" in="SourceGraphic"></feGaussianBlur>
        </filter>
        <linearGradient x1="6.8398891%" y1="8.73325893%" x2="6.8398891%" y2="75.4882812%" id="linearGradient-22">
            <stop stop-color="#1D8E47" offset="0%"></stop>
            <stop stop-color="#16AF55" offset="100%"></stop>
        </linearGradient>
        <linearGradient x1="49.9999583%" y1="77.7749123%" x2="49.9999583%" y2="-122.215088%" id="linearGradient-23">
            <stop stop-color="#2F2E41" offset="0%"></stop>
            <stop stop-color="#71747C" offset="100%"></stop>
        </linearGradient>
        <linearGradient x1="49.9999583%" y1="77.7749123%" x2="49.9999583%" y2="-122.215088%" id="linearGradient-24">
            <stop stop-color="#2F2E41" offset="0%"></stop>
            <stop stop-color="#71747C" offset="100%"></stop>
        </linearGradient>
        <linearGradient x1="49.9999583%" y1="77.7749123%" x2="49.9999583%" y2="-122.215088%" id="linearGradient-25">
            <stop stop-color="#71747C" offset="0%"></stop>
            <stop stop-color="#2F2E41" offset="100%"></stop>
        </linearGradient>
        <linearGradient x1="0.771587168%" y1="51.1003882%" x2="0%" y2="48.8996118%" id="linearGradient-26">
            <stop stop-color="#D5D7DB" offset="0%"></stop>
            <stop stop-color="#FFFFFF" offset="100%"></stop>
        </linearGradient>
        <linearGradient x1="49.9999583%" y1="77.7749123%" x2="49.9999583%" y2="-122.215088%" id="linearGradient-27">
            <stop stop-color="#2F2E41" offset="0%"></stop>
            <stop stop-color="#71747C" offset="100%"></stop>
        </linearGradient>
        <linearGradient x1="100%" y1="0%" x2="100%" y2="100%" id="linearGradient-28">
            <stop stop-color="#000000" stop-opacity="0.00669252622" offset="0%"></stop>
            <stop stop-color="#000000" stop-opacity="0.0823863636" offset="100%"></stop>
        </linearGradient>
        <linearGradient x1="50%" y1="0%" x2="50%" y2="100%" id="linearGradient-29">
            <stop stop-color="#2F2E41" offset="0%"></stop>
            <stop stop-color="#4C4C4C" offset="100%"></stop>
        </linearGradient>
        <linearGradient x1="50%" y1="0%" x2="50%" y2="100%" id="linearGradient-30">
            <stop stop-color="#2F2E41" offset="0%"></stop>
            <stop stop-color="#4C4C4C" offset="100%"></stop>
        </linearGradient>
        <linearGradient x1="37.9556055%" y1="6.123234e-15%" x2="61.8994345%" y2="99.3982264%" id="linearGradient-31">
            <stop stop-color="#FFFFFF" offset="0%"></stop>
            <stop stop-color="#DADBDF" offset="100%"></stop>
        </linearGradient>
        <rect id="path-32" x="0" y="0" width="28.5843849" height="58.24" rx="1.35"></rect>
        <linearGradient x1="50%" y1="0%" x2="50%" y2="100%" id="linearGradient-34">
            <stop stop-color="#2F2E41" offset="0%"></stop>
            <stop stop-color="#4C4C4C" offset="100%"></stop>
        </linearGradient>
        <radialGradient cx="50%" cy="0%" fx="50%" fy="0%" r="100%" gradientTransform="translate(0.500000,0.000000),scale(0.083658,1.000000),rotate(90.000000),scale(1.000000,8.792434),translate(-0.500000,-0.000000)" id="radialGradient-35">
            <stop stop-color="#59596A" offset="0%"></stop>
            <stop stop-color="#2F2E41" offset="100%"></stop>
        </radialGradient>
        <linearGradient x1="0.771587168%" y1="50.7897489%" x2="0%" y2="49.2102511%" id="linearGradient-36">
            <stop stop-color="#D5D7DB" offset="0%"></stop>
            <stop stop-color="#FFFFFF" offset="100%"></stop>
        </linearGradient>
        <linearGradient x1="49.9999583%" y1="77.7749123%" x2="49.9999583%" y2="-122.215088%" id="linearGradient-37">
            <stop stop-color="#2F2E41" offset="0%"></stop>
            <stop stop-color="#71747C" offset="100%"></stop>
        </linearGradient>
        <radialGradient cx="50%" cy="0%" fx="50%" fy="0%" r="100%" gradientTransform="translate(0.500000,0.000000),scale(0.083568,1.000000),rotate(90.000000),scale(1.000000,8.792434),translate(-0.500000,-0.000000)" id="radialGradient-38">
            <stop stop-color="#59596A" offset="0%"></stop>
            <stop stop-color="#2F2E41" offset="100%"></stop>
        </radialGradient>
        <linearGradient x1="100%" y1="0%" x2="100%" y2="100%" id="linearGradient-39">
            <stop stop-color="#000000" stop-opacity="0.00669252622" offset="0%"></stop>
            <stop stop-color="#000000" stop-opacity="0.0823863636" offset="100%"></stop>
        </linearGradient>
        <linearGradient x1="50%" y1="0%" x2="50%" y2="100%" id="linearGradient-40">
            <stop stop-color="#2F2E41" offset="0%"></stop>
            <stop stop-color="#4C4C4C" offset="100%"></stop>
        </linearGradient>
        <linearGradient x1="50%" y1="0%" x2="50%" y2="100%" id="linearGradient-41">
            <stop stop-color="#2F2E41" offset="0%"></stop>
            <stop stop-color="#4C4C4C" offset="100%"></stop>
        </linearGradient>
        <linearGradient x1="50%" y1="0%" x2="50%" y2="100%" id="linearGradient-42">
            <stop stop-color="#2F2E41" offset="0%"></stop>
            <stop stop-color="#4C4C4C" offset="100%"></stop>
        </linearGradient>
        <linearGradient x1="69.4846082%" y1="0%" x2="69.4846082%" y2="100%" id="linearGradient-43">
            <stop stop-color="#E7E8EA" offset="0%"></stop>
            <stop stop-color="#F2F3F4" offset="100%"></stop>
        </linearGradient>
        <linearGradient x1="50%" y1="0%" x2="50%" y2="100%" id="linearGradient-44">
            <stop stop-color="#2F2E41" offset="0%"></stop>
            <stop stop-color="#4C4C4C" offset="100%"></stop>
        </linearGradient>
        <linearGradient x1="32.0880885%" y1="6.123234e-15%" x2="67.6963331%" y2="99.3982264%" id="linearGradient-45">
            <stop stop-color="#FFFFFF" offset="0%"></stop>
            <stop stop-color="#DADBDF" offset="100%"></stop>
        </linearGradient>
        <linearGradient x1="2.86797092%" y1="100%" x2="100%" y2="100%" id="linearGradient-46">
            <stop stop-color="#FFFFFF" offset="0%"></stop>
            <stop stop-color="#D8D9DD" offset="100%"></stop>
        </linearGradient>
        <linearGradient x1="43.9309384%" y1="6.123234e-15%" x2="55.9960175%" y2="99.3982264%" id="linearGradient-47">
            <stop stop-color="#FFFFFF" offset="0%"></stop>
            <stop stop-color="#DADBDF" offset="100%"></stop>
        </linearGradient>
        <linearGradient x1="50%" y1="0%" x2="50%" y2="100%" id="linearGradient-48">
            <stop stop-color="#2F2E41" offset="0%"></stop>
            <stop stop-color="#4C4C4C" offset="100%"></stop>
        </linearGradient>
    </defs>
    <g id="Landing-pages" stroke="none" stroke-width="1" fill="none" fill-rule="evenodd">
        <g id="JRP-Landing-Green-Pass-alternative" transform="translate(-362.000000, -120.000000)">
            <g id="top-area">
                <g id="cp/landing/jrpass-landing/header" transform="translate(361.000000, 120.000000)">
                    <g id="illustration-undraw/affiliate-header-illustration" transform="translate(1.000000, 0.000000)">
                        <g id="Group-6">
                            <mask id="mask-2" fill="white">
                                <use xlink:href="#path-1"></use>
                            </mask>
                            <use id="Mask" fill="#FFFFFF" xlink:href="#path-1"></use>
                            <circle id="Oval" fill="#FF0000" mask="url(#mask-2)" cx="137" cy="94" r="62"></circle>
                            <polygon id="Rectangle" fill="#16AF55" mask="url(#mask-2)" points="6 227.429628 1211 227.429628 1211 521.429628 6 521.429628"></polygon>
                            <g id="header-image/elements/mountain" mask="url(#mask-2)">
                                <g transform="translate(524.000000, 59.000000)" id="Group">
                                    <g>
                                        <mask id="mask-4" fill="white">
                                            <use xlink:href="#path-3"></use>
                                        </mask>
                                        <g id="Mask" fill-rule="nonzero"></g>
                                        <g id="gora" mask="url(#mask-4)">
                                            <g transform="translate(0.544286, 0.000000)">
                                                <mask id="mask-7" fill="white">
                                                    <use xlink:href="#path-6"></use>
                                                </mask>
                                                <use id="Mask" stroke="none" fill="url(#linearGradient-5)" fill-rule="nonzero" xlink:href="#path-6"></use>
                                                <path d="M519.361163,53.8758505 C553.528731,71.1152635 503.947775,49.6991272 485.575145,50.2749783 C473.002759,51.1444626 462.831624,50.224087 455.06174,47.5138516 L467.721888,69.1444444 C456.71154,58.8100804 450.062629,52.1972665 447.775156,49.3060028 C445.487683,46.414739 444.603091,47.513894 445.121378,52.6034677 L445.121378,58.329148 L439.675693,52.6034677 L429.42118,44.9691071 C427.930697,46.602578 424.824639,46.602578 420.103008,44.9691071 C415.381377,43.3356362 410.958006,41.6391399 406.832894,39.8796182 C406.832894,41.5760297 406.832894,44.1207741 406.832894,47.5138516 C406.832894,50.906929 408.060567,56.2852912 410.515913,63.6489382 L403.361346,52.6034677 C401.555489,38.8722108 400.652561,32.9344243 400.652561,34.7901081 C400.652561,37.5736338 389.91032,33.9952454 389.91032,37.5736338 C389.91032,39.9592261 387.597585,40.7278876 382.972114,39.8796182 L378.423653,49.3060028 L382.972114,33.1520425 C373.658424,38.1095146 367.784907,41.3183934 365.351564,42.7786789 C362.918221,44.2389644 355.970235,47.9380216 344.507608,53.8758505 C350.365234,49.6408515 355.303633,45.3995754 359.322805,41.1520222 C363.341978,36.9044691 365.351564,32.138024 365.351564,26.8526871 C362.023441,26.5672069 358.315975,28.666992 354.229164,33.1520425 C350.142354,37.637093 346.901835,37.9146882 344.507608,33.9848281 L349.656256,28.2660924 C341.96751,34.0757358 335.63764,37.9469111 330.666644,39.8796182 C325.695648,41.8123253 319.069148,44.9544535 310.787143,49.3060028 L377.041146,-12.5222222 L415.074153,-12.5222222 L502.538825,44.9691071 C550.089102,65.532295 555.696549,68.5012094 519.361163,53.8758505 Z" id="Path" stroke="none" fill="url(#linearGradient-8)" fill-rule="nonzero" mask="url(#mask-7)"></path>
                                                <path d="M454.979124,56.2584187 C460.275743,60.8883475 458.686635,68.0633661 468.228617,77.4862779 C474.944928,84.1187786 475.343364,90.210974 529.641529,113.645174 C540.778786,118.451832 560.442108,121.173937 564.192403,118.177525 C583.642695,124.324039 616.888323,142.554984 636.482147,152.474161 C722.557199,196.048795 680.393275,200.552447 509.990375,165.985118 C509.593505,151.528504 506.976774,139.946418 502.140182,131.238861 C494.885292,118.177525 475.44439,99.9715882 468.228617,88.7289331 C463.418102,81.2338296 455.929329,70.4103248 445.762298,56.2584187 C453.17569,61.8345716 456.247966,61.8345716 454.979124,56.2584187 Z M406.226514,40.3738022 C407.59496,45.3525183 405.7999,35.0741398 407.859628,46.5835915 C407.968249,51.7741875 420.177259,50.2952867 420.554767,55.3581134 C421.614784,69.5741614 421.614784,78.6555156 420.554767,82.602176 L423.288033,76.6603938 L423.288033,88.8002395 C446.715559,196.843263 449.227979,217.151252 430.825294,149.724207 C403.221266,48.5836394 407.128027,52.5293719 404.183288,33.2082364 C401.238549,13.8871009 404.858068,35.3950861 406.226514,40.3738022 Z M384.563305,80.8314229 L380.842348,91.4691775 C390.658146,116.156179 398.230041,134.134648 403.558035,145.404585 C411.550026,162.309491 390.55302,145.404585 393.404858,141.404764 C396.256695,137.404942 387.158441,111.367306 384.563305,107.596015 C381.96817,103.824725 379.150559,124.874011 379.150559,113.118004 C379.150559,101.361997 377.548005,94.6462878 377.548005,91.4691775 C377.548005,89.3511039 379.886438,85.8051857 384.563305,80.8314229 L384.563305,80.8314229 Z M384.645205,48.1546082 C382.80836,51.3406614 381.343528,53.8165895 380.250711,55.5823925 C378.611485,58.231097 341.399466,84.3379518 332.204031,106.910423 C329.56163,104.19498 327.196508,103.878934 325.108664,105.962285 C313.354155,117.695662 306.830663,125.475632 305.538188,129.302195 C295.653122,136.042615 290.710589,139.412825 290.710589,139.412825 L283.106096,144.716867 L279.762857,141.426023 C339.759017,89.4485395 379.645627,50.3386217 382.139304,46.7514075 C383.801756,44.3599313 384.637056,44.8276649 384.645205,48.1546082 Z M378.394857,22.9883333 L378.258139,23.1437695 C374.769249,27.0842908 370.877761,31.6785752 369.499784,33.8336956 C367.411941,37.0990295 365.775567,40.9797527 364.590663,45.4758652 L353.178423,54.814954 C361.541205,51.8359037 373.397173,45.7151742 388.746326,36.4527655 C378.687273,45.4758652 304.955108,83.0858153 294.303195,89.2083164 C283.651282,95.3308175 325.788313,70.2955279 335.02592,62.8305409 C344.263527,55.3655539 343.464084,58.231097 343.863805,58.231097 C344.263527,58.231097 349.07119,54.4044063 353.178423,50.5779069 C355.916578,48.0269073 357.276284,44.3564504 357.257541,39.5665361 C360.354264,36.8408819 362.798638,34.929935 364.590663,33.8336956 C366.51069,32.6591532 372.772074,28.076109 378.064723,23.2889664 L378.394857,22.9883333 Z M390.727822,40.3738022 C388.385721,22.1323488 390.8904,19.9523133 398.241858,33.8336956 C399.347714,40.0540274 398.796008,44.7748725 396.586741,47.996231 C393.272839,52.8282688 396.586741,61.9716901 396.586741,65.8620293 C396.586741,69.7523685 398.241858,87.1281541 398.241858,87.1281541 C398.241858,87.1281541 394.018498,69.9681442 394.018498,69.9681442 C394.018498,69.9681442 394.240973,67.7359823 390.727822,40.3738022 Z M426.04269,28.3914724 C426.04269,22.6675716 429.025324,13.6085314 429.025324,17.846102 C429.025324,22.0836727 425.448609,40.3738022 444.294207,66.5678176 C456.857939,84.0304946 451.768311,79.5508646 429.025324,53.1289278 C427.036902,40.4532247 426.04269,32.2074062 426.04269,28.3914724 Z M378.49536,22.876147 C382.831715,17.989638 386.435458,14.2344679 383.611063,17.6515098 C382.225357,19.3279806 380.398262,21.1582512 378.416073,22.9695563 L378.394857,22.9883333 Z" id="Path-4" stroke="none" fill="url(#linearGradient-9)" fill-rule="nonzero" mask="url(#mask-7)"></path>
                                            </g>
                                        </g>
                                    </g>
                                </g>
                            </g>
                            <g id="Group-10" mask="url(#mask-2)" fill="#F6F6F7">
                                <g transform="translate(-16.000000, 72.000000)" id="Rectangle">
                                    <path d="M518,183 L631,183 C633.761424,183 636,185.238576 636,188 C636,190.761424 633.761424,193 631,193 L518,193 C515.238576,193 513,190.761424 513,188 C513,185.238576 515.238576,183 518,183 Z" filter="url(#filter-10)"></path>
                                    <path d="M1035.5,5 L1083.5,5 C1088.19442,5 1092,8.80557963 1092,13.5 C1092,18.1944204 1088.19442,22 1083.5,22 L1035.5,22 C1030.80558,22 1027,18.1944204 1027,13.5 C1027,8.80557963 1030.80558,5 1035.5,5 Z" filter="url(#filter-11)"></path>
                                    <path d="M505.5,63 L608.5,63 C613.746705,63 618,67.2532949 618,72.5 C618,77.7467051 613.746705,82 608.5,82 L505.5,82 C500.253295,82 496,77.7467051 496,72.5 C496,67.2532949 500.253295,63 505.5,63 Z" filter="url(#filter-12)"></path>
                                    <path d="M9.5,31 L217.5,31 C222.746705,31 227,35.2532949 227,40.5 C227,45.7467051 222.746705,50 217.5,50 L9.5,50 C4.25329488,50 6.42536064e-16,45.7467051 0,40.5 C-6.42536064e-16,35.2532949 4.25329488,31 9.5,31 Z" filter="url(#filter-13)"></path>
                                    <path d="M178.5,73 L386.5,73 C391.746705,73 396,77.2532949 396,82.5 C396,87.7467051 391.746705,92 386.5,92 L178.5,92 C173.253295,92 169,87.7467051 169,82.5 C169,77.2532949 173.253295,73 178.5,73 Z" filter="url(#filter-14)"></path>
                                    <path d="M994.5,113 L1191.5,113 C1196.74671,113 1201,117.253295 1201,122.5 C1201,127.746705 1196.74671,132 1191.5,132 L994.5,132 C989.253295,132 985,127.746705 985,122.5 C985,117.253295 989.253295,113 994.5,113 Z" filter="url(#filter-15)"></path>
                                    <path d="M516,21 L722,21 C724.761424,21 727,23.2385763 727,26 C727,28.7614237 724.761424,31 722,31 L516,31 C513.238576,31 511,28.7614237 511,26 C511,23.2385763 513.238576,21 516,21 Z" filter="url(#filter-16)"></path>
                                    <path d="M546.5,36 L606.5,36 C607.880712,36 609,37.1192881 609,38.5 C609,39.8807119 607.880712,41 606.5,41 L546.5,41 C545.119288,41 544,39.8807119 544,38.5 C544,37.1192881 545.119288,36 546.5,36 Z" filter="url(#filter-17)"></path>
                                    <path d="M299.5,0 L453.5,0 C454.880712,-2.53632657e-16 456,1.11928813 456,2.5 C456,3.88071187 454.880712,5 453.5,5 L299.5,5 C298.119288,5 297,3.88071187 297,2.5 C297,1.11928813 298.119288,2.53632657e-16 299.5,0 Z" opacity="0.437476749" filter="url(#filter-18)"></path>
                                    <path d="M939,127 L1145,127 C1147.76142,127 1150,129.238576 1150,132 C1150,134.761424 1147.76142,137 1145,137 L939,137 C936.238576,137 934,134.761424 934,132 C934,129.238576 936.238576,127 939,127 Z" filter="url(#filter-19)"></path>
                                    <path d="M1081.5,41 L1355.5,41 C1360.74671,41 1365,45.2532949 1365,50.5 C1365,55.7467051 1360.74671,60 1355.5,60 L1081.5,60 C1076.25329,60 1072,55.7467051 1072,50.5 C1072,45.2532949 1076.25329,41 1081.5,41 Z" opacity="0.657668341" filter="url(#filter-20)"></path>
                                    <path d="M971.5,72 L1111.5,72 C1116.74671,72 1121,76.2532949 1121,81.5 C1121,86.7467051 1116.74671,91 1111.5,91 L971.5,91 C966.253295,91 962,86.7467051 962,81.5 C962,76.2532949 966.253295,72 971.5,72 Z" filter="url(#filter-21)"></path>
                                </g>
                            </g>
                            <path d="M-1,215.567568 C60.8280386,222.600674 146.161372,226.554694 255,227.429628 C418.257942,228.74203 97.6830073,212.22321 499.631583,219.592056 C767.5973,224.50462 1006.38677,223.163124 1216,215.567568 L1216,278 L-1,278 L-1,215.567568 Z" id="Rectangle" fill="url(#linearGradient-22)" mask="url(#mask-2)"></path>
                            <g id="Group-2" mask="url(#mask-2)">
                                <g transform="translate(-12.687718, 254.444886)">
                                    <g id="Group-7" transform="translate(0.687718, 0.555114)">
                                        <rect id="Rectangle" stroke="#979797" fill="#A0A3AB" x="0" y="0" width="1239" height="42"></rect>
                                        <rect id="Rectangle" fill="#71747C" x="0" y="25" width="1239" height="16"></rect>
                                        <rect id="Rectangle" fill="#1E1D2C" x="0" y="25" width="1239" height="8"></rect>
                                        <rect id="Rectangle" fill="#A0A3AB" x="0" y="38" width="1239" height="16"></rect>
                                    </g>
                                    <g id="Group-5" transform="translate(704.687718, 0.000000)">
                                        <rect id="Rectangle" fill="#4C4C4C" x="0.781108669" y="0.555113729" width="510" height="3" rx="1.5"></rect>
                                        <rect id="Rectangle" fill="#E7E8EC" x="1.78110867" y="22.5551137" width="510" height="1.5" rx="0.75"></rect>
                                    </g>
                                    <g id="Group-9" transform="translate(3.000000, 2.555114)" fill-opacity="0.197552448">
                                        <path d="M51.6877185,6 L1219.68772,6 C1220.24,6 1220.68772,6.44771525 1220.68772,7 C1220.68772,7.55228475 1220.24,8 1219.68772,8 L51.6877185,8 C51.1354337,8 50.6877185,7.55228475 50.6877185,7 C50.6877185,6.44771525 51.1354337,6 51.6877185,6 Z" id="Rectangle" fill="#000000" opacity="0.598353795"></path>
                                        <path d="M1.18771849,12 L1168.18772,12 C1168.46386,12 1168.68772,12.2238576 1168.68772,12.5 C1168.68772,12.7761424 1168.46386,13 1168.18772,13 L1.18771849,13 C0.911576119,13 0.687718494,12.7761424 0.687718494,12.5 C0.687718494,12.2238576 0.911576119,12 1.18771849,12 Z" id="Rectangle" fill="#000000" opacity="0.401390439"></path>
                                        <path d="M51.1877185,17 L1220.18772,17 C1220.46386,17 1220.68772,17.2238576 1220.68772,17.5 C1220.68772,17.7761424 1220.46386,18 1220.18772,18 L51.1877185,18 C50.9115761,18 50.6877185,17.7761424 50.6877185,17.5 C50.6877185,17.2238576 50.9115761,17 51.1877185,17 Z" id="Rectangle" fill="#000000" opacity="0.401390439"></path>
                                        <path d="M163.187718,21 L1332.18772,21 C1332.46386,21 1332.68772,21.2238576 1332.68772,21.5 C1332.68772,21.7761424 1332.46386,22 1332.18772,22 L163.187718,22 C162.911576,22 162.687718,21.7761424 162.687718,21.5 C162.687718,21.2238576 162.911576,21 163.187718,21 Z" id="Rectangle" fill="#000000" opacity="0.401390439"></path>
                                        <path d="M15.5,0 L1219.18772,0 C1220.01615,1.01401219e-13 1220.68772,0.671572875 1220.68772,1.5 C1220.68772,2.32842712 1220.01615,3 1219.18772,3 L15.5,3 C14.6715729,3 14,2.32842712 14,1.5 C14,0.671572875 14.6715729,1.52179594e-16 15.5,0 Z" id="Rectangle" fill="#000000" opacity="0.67985026"></path>
                                    </g>
                                </g>
                            </g>
                            <g id="shinkansen-train/shinkansen-front" mask="url(#mask-2)">
                                <g transform="translate(872.000000, 181.000000)">
                                    <g id="shinkansen-train/shinkansen-front" transform="translate(0.000000, 0.040000)">
                                        <g id="Group-4">
                                            <g id="Group" transform="translate(0.000000, 5.200000)">
                                                <rect id="Rectangle" fill="url(#linearGradient-23)" x="0" y="1.56" width="4.67744479" height="84.24" rx="0.675"></rect>
                                                <rect id="Rectangle" fill="url(#linearGradient-24)" x="1.03943218" y="85.8" width="12.9929022" height="4.16" rx="0.675"></rect>
                                                <rect id="Rectangle" fill="url(#linearGradient-25)" x="2.59858044" y="0" width="4.67744479" height="87.36" rx="0.675"></rect>
                                            </g>
                                            <path d="M646.309887,1.47792889e-14 L163.850441,0.00464159273 C102.479093,0.019749522 52.1041297,0.0717385727 12.7255502,0.160608745 C8.14773974,0.170940963 4.44214908,3.89289431 4.44214908,8.48058765 L4.44214908,96.9146438 L657.725272,96.9146438 L657.725272,11.44 C657.725272,5.12186246 652.61443,1.47792889e-14 646.309887,1.47792889e-14 Z" id="Fill-19" stroke="#F6F6F7" stroke-width="0.5" fill="url(#linearGradient-26)"></path>
                                            <path d="M659,71.24 L659,73.3252517 L4.67744479,73.326 L4.67744479,71.239 L659,71.24 Z M659,60.32 L659,69.3399687 L4.67744479,69.338 L4.67744479,60.32 L659,60.32 Z" id="Combined-Shape" fill="#224A6D"></path>
                                            <path d="M3.11829653,80.2006468 C3.30832365,80.4646692 3.31741566,85.7247405 3.14597911,95.9808607 C3.13209119,96.8115405 3.77128164,97.5013912 4.5907783,97.5624942 L4.71018495,97.5668875 L657.437138,96.9162017 C658.299672,96.9137831 659,96.2155996 659,95.3546438 L659,80.2006468 L546.205113,80.1325094 L423.627452,80.0679333 C143.128932,79.9343315 2.95931981,79.9785694 3.11829653,80.2006468 Z" id="Fill-24" fill="url(#linearGradient-27)"></path>
                                            <path d="M4.44214908,0.180250343 C4.53811063,60.2805948 4.53811063,92.4605113 4.44214908,96.72 C4.35754532,100.812194 8.03820061,97.2207957 7.63104382,97.568474 C6.61619344,98.4350724 6.58893644,68.5368727 7.54927282,7.87387483 C7.59399984,5.0480897 9.8974854,2.78078125 12.7236245,2.78078125 L651.124936,2.78078125 C653.610217,2.78078125 655.624936,4.79549988 655.624936,7.28078125 L655.624936,96.7524558 L655.624936,96.7524558 C656.789362,96.7344623 657.723121,95.7839802 657.720445,94.6194183 L657.51685,6.01680794 C657.509438,2.79119901 654.892482,0.180250343 651.666865,0.180250343 L4.44214908,0.180250343 L4.44214908,0.180250343 Z" id="Fill-19" fill="url(#linearGradient-28)"></path>
                                            <g id="Group-3" transform="translate(96.864899, 25.288474)">
                                                <path d="M42.7818642,18.72 C44.2984014,18.72 45.5275562,19.9716697 45.5275562,21.5159859 L45.5275562,29.9039434 C45.5275562,31.4482596 44.2984014,32.6999293 42.7818642,32.6999293 L29.9686352,32.6999293 C28.452098,32.6999293 27.2229432,31.4482596 27.2229432,29.9039434 L27.2229432,21.5159859 C27.2229432,19.9716697 28.452098,18.72 29.9686352,18.72 L42.7818642,18.72 Z M124.054346,18.72 C125.570883,18.72 126.800038,19.9716697 126.800038,21.5159859 L126.800038,29.9039434 C126.800038,31.4482596 125.570883,32.6999293 124.054346,32.6999293 L111.241117,32.6999293 C109.72458,32.6999293 108.495425,31.4482596 108.495425,29.9039434 L108.495425,21.5159859 C108.495425,19.9716697 109.72458,18.72 111.241117,18.72 L124.054346,18.72 Z M205.326828,18.72 C206.843365,18.72 208.072519,19.9716697 208.072519,21.5159859 L208.072519,29.9039434 C208.072519,31.4482596 206.843365,32.6999293 205.326828,32.6999293 L192.513598,32.6999293 C190.997061,32.6999293 189.767906,31.4482596 189.767906,29.9039434 L189.767906,21.5159859 C189.767906,19.9716697 190.997061,18.72 192.513598,18.72 L205.326828,18.72 Z M286.599309,18.72 C288.115846,18.72 289.345001,19.9716697 289.345001,21.5159859 L289.345001,29.9039434 C289.345001,31.4482596 288.115846,32.6999293 286.599309,32.6999293 L273.78608,32.6999293 C272.269543,32.6999293 271.040388,31.4482596 271.040388,29.9039434 L271.040388,21.5159859 C271.040388,19.9716697 272.269543,18.72 273.78608,18.72 L286.599309,18.72 Z M367.871791,18.72 C369.388328,18.72 370.617483,19.9716697 370.617483,21.5159859 L370.617483,29.9039434 C370.617483,31.4482596 369.388328,32.6999293 367.871791,32.6999293 L355.058562,32.6999293 C353.542025,32.6999293 352.31287,31.4482596 352.31287,29.9039434 L352.31287,21.5159859 C352.31287,19.9716697 353.542025,18.72 355.058562,18.72 L367.871791,18.72 Z M449.144272,18.72 C450.66081,18.72 451.889964,19.9716697 451.889964,21.5159859 L451.889964,29.9039434 C451.889964,31.4482596 450.66081,32.6999293 449.144272,32.6999293 L436.331043,32.6999293 C434.814506,32.6999293 433.585351,31.4482596 433.585351,29.9039434 L433.585351,21.5159859 C433.585351,19.9716697 434.814506,18.72 436.331043,18.72 L449.144272,18.72 Z M96.9635187,18.72 C98.4800559,18.72 99.7092106,19.9716697 99.7092106,21.5159859 L99.7092106,29.9039434 C99.7092106,31.4482596 98.4800559,32.6999293 96.9635187,32.6999293 L84.1502896,32.6999293 C82.6337524,32.6999293 81.4045976,31.4482596 81.4045976,29.9039434 L81.4045976,21.5159859 C81.4045976,19.9716697 82.6337524,18.72 84.1502896,18.72 L96.9635187,18.72 Z M15.558921,18.72 C17.0754582,18.72 18.304613,19.9716697 18.304613,21.5159859 L18.304613,29.9039434 C18.304613,31.4482596 17.0754582,32.6999293 15.558921,32.6999293 L2.74569195,32.6999293 C1.22915476,32.6999293 0,31.4482596 0,29.9039434 L0,21.5159859 C0,19.9716697 1.22915476,18.72 2.74569195,18.72 L15.558921,18.72 Z M178.236,18.72 C179.752537,18.72 180.981692,19.9716697 180.981692,21.5159859 L180.981692,29.9039434 C180.981692,31.4482596 179.752537,32.6999293 178.236,32.6999293 L165.422771,32.6999293 C163.906234,32.6999293 162.677079,31.4482596 162.677079,29.9039434 L162.677079,21.5159859 C162.677079,19.9716697 163.906234,18.72 165.422771,18.72 L178.236,18.72 Z M259.508482,18.72 C261.025019,18.72 262.254174,19.9716697 262.254174,21.5159859 L262.254174,29.9039434 C262.254174,31.4482596 261.025019,32.6999293 259.508482,32.6999293 L246.695253,32.6999293 C245.178716,32.6999293 243.949561,31.4482596 243.949561,29.9039434 L243.949561,21.5159859 C243.949561,19.9716697 245.178716,18.72 246.695253,18.72 L259.508482,18.72 Z M340.780964,18.72 C342.297501,18.72 343.526656,19.9716697 343.526656,21.5159859 L343.526656,29.9039434 C343.526656,31.4482596 342.297501,32.6999293 340.780964,32.6999293 L327.967734,32.6999293 C326.451197,32.6999293 325.222043,31.4482596 325.222043,29.9039434 L325.222043,21.5159859 C325.222043,19.9716697 326.451197,18.72 327.967734,18.72 L340.780964,18.72 Z M69.8726915,18.72 C71.3892286,18.72 72.6183834,19.9716697 72.6183834,21.5159859 L72.6183834,29.9039434 C72.6183834,31.4482596 71.3892286,32.6999293 69.8726915,32.6999293 L57.0594624,32.6999293 C55.5429252,32.6999293 54.3137704,31.4482596 54.3137704,29.9039434 L54.3137704,21.5159859 C54.3137704,19.9716697 55.5429252,18.72 57.0594624,18.72 L69.8726915,18.72 Z M151.145173,18.72 C152.66171,18.72 153.890865,19.9716697 153.890865,21.5159859 L153.890865,29.9039434 C153.890865,31.4482596 152.66171,32.6999293 151.145173,32.6999293 L138.331944,32.6999293 C136.815407,32.6999293 135.586252,31.4482596 135.586252,29.9039434 L135.586252,21.5159859 C135.586252,19.9716697 136.815407,18.72 138.331944,18.72 L151.145173,18.72 Z M232.417655,18.72 C233.934192,18.72 235.163347,19.9716697 235.163347,21.5159859 L235.163347,29.9039434 C235.163347,31.4482596 233.934192,32.6999293 232.417655,32.6999293 L219.604426,32.6999293 C218.087888,32.6999293 216.858734,31.4482596 216.858734,29.9039434 L216.858734,21.5159859 C216.858734,19.9716697 218.087888,18.72 219.604426,18.72 L232.417655,18.72 Z M313.690136,18.72 C315.206674,18.72 316.435828,19.9716697 316.435828,21.5159859 L316.435828,29.9039434 C316.435828,31.4482596 315.206674,32.6999293 313.690136,32.6999293 L300.876907,32.6999293 C299.36037,32.6999293 298.131215,31.4482596 298.131215,29.9039434 L298.131215,21.5159859 C298.131215,19.9716697 299.36037,18.72 300.876907,18.72 L313.690136,18.72 Z M394.962618,18.72 C396.479155,18.72 397.70831,19.9716697 397.70831,21.5159859 L397.70831,29.9039434 C397.70831,31.4482596 396.479155,32.6999293 394.962618,32.6999293 L382.149389,32.6999293 C380.632852,32.6999293 379.403697,31.4482596 379.403697,29.9039434 L379.403697,21.5159859 C379.403697,19.9716697 380.632852,18.72 382.149389,18.72 L394.962618,18.72 Z M422.053445,18.72 C423.569982,18.72 424.799137,19.9716697 424.799137,21.5159859 L424.799137,29.9039434 C424.799137,31.4482596 423.569982,32.6999293 422.053445,32.6999293 L409.240216,32.6999293 C407.723679,32.6999293 406.494524,31.4482596 406.494524,29.9039434 L406.494524,21.5159859 C406.494524,19.9716697 407.723679,18.72 409.240216,18.72 L422.053445,18.72 Z" id="Combined-Shape" fill="url(#linearGradient-29)"></path>
                                                <rect id="Rectangle" fill="url(#linearGradient-30)" x="0" y="0" width="18.1900631" height="5.72" rx="0.9"></rect>
                                            </g>
                                        </g>
                                        <g id="drzwi" transform="translate(19.229495, 19.568474)">
                                            <mask id="mask-33" fill="white">
                                                <use xlink:href="#path-32"></use>
                                            </mask>
                                            <use id="Mask" stroke="#71747C" stroke-width="0.5" fill="url(#linearGradient-31)" xlink:href="#path-32"></use>
                                            <rect id="Rectangle" fill="url(#linearGradient-34)" mask="url(#mask-33)" x="6.55860253" y="5.911526" width="15.5914826" height="20.28" rx="2.025"></rect>
                                            <path d="M31.7026814,51.671889 L31.7026814,53.7508635 L-3.11829653,53.751526 L-3.11829653,51.671526 L31.7026814,51.671889 Z M31.7026814,40.751526 L31.7026814,50.111526 L-3.11829653,50.1104966 L-3.11829653,40.751526 L31.7026814,40.751526 Z" id="Shape" fill="#224A6D" mask="url(#mask-33)"></path>
                                        </g>
                                    </g>
                                    <g id="shinkansen-train/parts/wheels" transform="translate(18.709779, 83.240000)">
                                        <g id="Group-17">
                                            <path d="M27.7426593,10.468474 C27.7426593,14.9189373 24.1337508,18.528474 19.6870599,18.528474 C15.2390265,18.528474 11.6314606,14.9189373 11.6314606,10.468474 C11.6314606,6.01801067 15.2390265,2.408474 19.6870599,2.408474 C24.1337508,2.408474 27.7426593,6.01801067 27.7426593,10.468474" id="Fill-5" stroke="#2F2E41" stroke-width="1.575" fill="#000000"></path>
                                            <path d="M140.52105,10.468474 C140.52105,14.9189373 136.912142,18.528474 132.465451,18.528474 C128.017418,18.528474 124.409852,14.9189373 124.409852,10.468474 C124.409852,6.01801067 128.017418,2.408474 132.465451,2.408474 C136.912142,2.408474 140.52105,6.01801067 140.52105,10.468474" id="Fill-5" stroke="#2F2E41" stroke-width="1.575" fill="#000000"></path>
                                            <path d="M13.1977066,0.328474003 L142.592817,0.328474003 C149.772519,0.328474003 155.592817,6.14877226 155.592817,13.328474 L155.592817,13.328474 L155.592817,13.328474 L0.19770662,13.328474 C0.19770662,6.14877226 6.01800487,0.328474003 13.1977066,0.328474003 Z" id="Rectangle" fill="url(#radialGradient-35)"></path>
                                            <path d="M11.1117445,12.808474 L141.560483,12.808474 C141.560483,9.9365933 139.232363,7.608474 136.360483,7.608474 L16.3117445,7.608474 C13.4398638,7.608474 11.1117445,9.9365933 11.1117445,12.808474 L11.1117445,12.808474 L11.1117445,12.808474 Z" id="Fill-11" fill="#191822"></path>
                                        </g>
                                    </g>
                                    <g id="logo/green-car-logo" transform="translate(59.247634, 23.960000)">
                                        <g fill="#16AF55" id="Combined-Shape">
                                            <path d="M1.22940175,24.38 C1.49653102,24.38 1.79705145,24.4099859 2.13096303,24.4699576 L2.13096303,24.4699576 L2.29032993,24.5014427 L2.27211657,24.897256 L2.0037541,24.8657709 C1.74250623,24.8387836 1.50260214,24.82529 1.28404183,24.82529 C0.992628079,24.82529 0.793040017,24.9062518 0.685277642,25.0681754 C0.577515266,25.230099 0.523634078,25.5299576 0.523634078,25.9677511 C0.523634078,26.4055446 0.574479706,26.7076521 0.676170962,26.8740736 C0.777862218,27.040495 0.983521399,27.1237058 1.29314851,27.1237058 C1.51474438,27.1237058 1.68018239,27.1102122 1.78946255,27.0832249 L1.78946255,27.0832249 L1.78946255,26.3320792 L1.40242866,26.3320792 L1.40242866,25.8912871 L2.29032993,25.8912871 L2.29032993,27.4565488 L2.23104544,27.4693228 C2.13852158,27.4865946 1.99208617,27.504826 1.79173922,27.524017 C1.54130553,27.5480057 1.35993082,27.56 1.24761511,27.56 C0.774067768,27.56 0.447745082,27.4310608 0.268647049,27.1731825 C0.0895490163,26.9153041 0,26.5112447 0,25.9610042 C0,25.4107638 0.0918256862,25.009703 0.275477059,24.7578218 C0.459128431,24.5059406 0.777103328,24.38 1.22940175,24.38 Z M15.945796,24.38 C16.2159609,24.38 16.5134457,24.4174823 16.8382506,24.492447 L16.8382506,24.492447 L16.8200373,24.897256 L16.5468369,24.8572749 C16.3647033,24.8359516 16.1825697,24.82529 16.0004361,24.82529 C15.7272357,24.82529 15.5420666,24.9055021 15.4449286,25.0659264 C15.3477907,25.2263508 15.2992218,25.5277086 15.2992218,25.97 C15.2992218,26.4122914 15.3462729,26.7136492 15.4403753,26.8740736 C15.5344777,27.0344979 15.718129,27.11471 15.9913294,27.11471 C16.2645298,27.11471 16.5407658,27.0922207 16.8200373,27.0472419 L16.8200373,27.0472419 L16.8336973,27.4610467 L16.6023307,27.5043388 C16.3740945,27.5414463 16.1552497,27.56 15.945796,27.56 C15.490462,27.56 15.1815938,27.4355587 15.0191914,27.1866761 C14.8567889,26.9377935 14.7755877,26.5284866 14.7755877,25.9587553 C14.7755877,25.389024 14.8575478,24.9834653 15.021468,24.7420792 C15.1853883,24.5006931 15.4934976,24.38 15.945796,24.38 Z M4.10711251,24.4294767 L4.24326749,24.4338346 C4.85674739,24.4745088 5.16348735,24.7999019 5.16348735,25.4100141 C5.16348735,25.8478076 4.99349599,26.1446676 4.65351329,26.3005941 L4.65351329,26.3005941 L5.16804069,27.5105233 L4.61253323,27.5105233 L4.16175259,26.413041 L3.42866488,26.413041 L3.42866488,27.5105233 L2.92324416,27.5105233 L2.92324416,24.4294767 L4.10711251,24.4294767 Z M7.70425096,24.4294767 L7.70425096,24.8657709 L6.24262888,24.8657709 L6.24262888,25.7383593 L7.43105057,25.7383593 L7.43105057,26.1701556 L6.24262888,26.1701556 L6.24262888,27.0697313 L7.70425096,27.0697313 L7.70425096,27.5105233 L5.73720816,27.5105233 L5.73720816,24.4294767 L7.70425096,24.4294767 Z M10.2222479,24.4294767 L10.2222479,24.8657709 L8.7606258,24.8657709 L8.7606258,25.7383593 L9.94904749,25.7383593 L9.94904749,26.1701556 L8.7606258,26.1701556 L8.7606258,27.0697313 L10.2222479,27.0697313 L10.2222479,27.5105233 L8.25520508,27.5105233 L8.25520508,24.4294767 L10.2222479,24.4294767 Z M11.6565499,24.4294767 L12.6036446,27.0697313 L12.6719447,27.0697313 L12.6719447,24.4294767 L13.1773654,24.4294767 L13.1773654,27.5105233 L12.3122309,27.5105233 L11.3423695,24.8657709 L11.2786227,24.8657709 L11.2786227,27.5105233 L10.773202,27.5105233 L10.773202,24.4294767 L11.6565499,24.4294767 Z M18.8827002,24.4294767 L19.656768,27.5105233 L19.1467939,27.5105233 L18.9783203,26.8493352 L17.780792,26.8493352 L17.6123184,27.5105233 L17.1068977,27.5105233 L17.8764121,24.4294767 L18.8827002,24.4294767 Z M21.2868636,24.4294767 L21.4230186,24.4338346 C22.0364985,24.4745088 22.3432385,24.7999019 22.3432385,25.4100141 C22.3432385,25.8478076 22.1732471,26.1446676 21.8332644,26.3005941 L21.8332644,26.3005941 L22.3477918,27.5105233 L21.7922843,27.5105233 L21.3415037,26.413041 L20.608416,26.413041 L20.608416,27.5105233 L20.1029953,27.5105233 L20.1029953,24.4294767 L21.2868636,24.4294767 Z M18.4956663,24.8477793 L18.2679993,24.8477793 L17.8809654,26.4085431 L18.8781469,26.4085431 L18.4956663,24.8477793 Z M4.10711251,24.861273 L3.42866488,24.861273 L3.42866488,25.9812447 L4.11621919,25.9812447 C4.29835278,25.9812447 4.43191742,25.9295191 4.51691309,25.8260679 C4.60190877,25.7226167 4.64440661,25.5854314 4.64440661,25.414512 C4.64440661,25.045686 4.46530858,24.861273 4.10711251,24.861273 L4.10711251,24.861273 Z M21.2868636,24.861273 L20.608416,24.861273 L20.608416,25.9812447 L21.2959703,25.9812447 C21.4781039,25.9812447 21.6116685,25.9295191 21.6966642,25.8260679 C21.7816599,25.7226167 21.8241577,25.5854314 21.8241577,25.414512 C21.8241577,25.045686 21.6450597,24.861273 21.2868636,24.861273 L21.2868636,24.861273 Z M11.1738923,11.5716667 L18.2956569,18.2975412 C19.2333513,19.1831103 19.2798912,20.6657208 18.3996067,21.6090444 C17.9594155,22.0807587 17.3449053,22.3483333 16.7017608,22.3483333 L5.64602371,22.3483333 C4.3598777,22.3483333 3.31725035,21.2994468 3.31725035,20.0055797 C3.31725035,19.3585742 3.58322827,18.740375 4.0521276,18.2975412 L11.1738923,11.5716667 Z M21.7238961,4.81123772 C22.1247846,5.2480947 22.3477918,5.82376865 22.3477918,6.4217712 L22.3477918,15.8382372 C22.3477918,17.1407618 21.311222,18.1966667 20.0325484,18.1966667 C19.4454961,18.1966667 18.8803636,17.9694998 18.451506,17.5611335 L11.6976723,11.1300042 L18.451506,4.69887492 C19.3856116,3.80940184 20.8507105,3.85970838 21.7238961,4.81123772 Z M2.31524338,4.06333333 C2.90229567,4.06333333 3.46742823,4.29050024 3.89628575,4.69886655 L10.6501195,11.1299958 L3.89628575,17.5611251 C2.96218023,18.4505982 1.49708131,18.4002916 0.623895719,17.4487623 C0.223007169,17.0119053 0,16.4362313 0,15.8382288 L0,6.42176283 C0,5.11923818 1.03656977,4.06333333 2.31524338,4.06333333 Z M16.7017681,0 C17.9879141,0 19.0305415,1.04888652 19.0305415,2.34275362 C19.0305415,2.98975912 18.7645635,3.60795832 18.2956642,4.05079211 L11.1738995,10.7766667 L4.05213486,4.05079211 C3.11444048,3.16522301 3.0679006,1.68261253 3.94818511,0.739288919 C4.38837632,0.267574663 5.00288645,0 5.64603098,0 L16.7017681,0 Z"></path>
                                        </g>
                                    </g>
                                </g>
                            </g>
                            <g id="shinkansen-train/shinkansen-front" mask="url(#mask-2)">
                                <g transform="translate(38.000000, 180.000000)">
                                    <g id="shinkansen-train/shinkansen-front" transform="translate(0.000000, 0.520000)">
                                        <g id="Group-4">
                                            <path d="M349.944267,2.35175849 L349.944267,80.6493268 L55.7553146,80.6493268 C55.7275633,80.6493268 2.31578992,80.7162765 2.30191425,80.6744329 C0.22056426,76.4342845 7.01964091,73.0365867 7.01964091,73.0365867 C15.7779335,53.8276172 113.86426,42.6893275 123.591102,39.4803906 C126.921262,38.3933877 141.51466,38.7484033 141.51466,38.7484033 C153.156344,35.2763168 151.330906,34.3842864 155.57686,32.0977678 C156.381649,31.6644544 156.964427,31.3343551 157.283567,31.153033 C157.408448,31.0832937 157.491702,31.029362 157.547205,31.0014663 C157.561081,30.9875184 157.574956,30.9893781 157.574956,30.9893781 C158.920896,30.1804025 160.488846,29.2737918 162.278807,28.2974418 C162.681202,28.0742761 163.097472,27.8520403 163.513742,27.6279447 C164.165898,27.2792483 164.845806,26.9175339 165.553465,26.5548896 C165.914232,26.3735675 166.261124,26.1792273 166.635767,25.9969753 C168.148214,25.2158954 169.757792,24.4069197 171.450623,23.5839961 C171.866893,23.3738484 172.283163,23.1664903 172.699433,22.9702905 C174.184129,22.2589498 175.724328,21.5187835 177.32003,20.7944248 C177.777927,20.5842771 178.235824,20.376919 178.693721,20.1667713 C179.845401,19.6367527 181.038709,19.1067342 182.259767,18.5767156 C182.745416,18.3535499 183.24494,18.1303842 183.758339,17.9202365 C186.186581,16.8601994 188.698077,15.8141102 191.292826,14.7680209 C193.193793,14.0018187 195.12251,12.9027276 197.092855,12.1486134 C214.576195,5.56522512 234.335144,2.35175849 250.708431,2.35175849 L349.944267,2.35175849 Z" id="Fill-14" stroke="#E7E8EC" stroke-width="0.5" fill="#FFFFFF"></path>
                                            <path d="M361.915127,2.35175849 C235.453788,2.35175849 210.445124,41.1810029 175.925045,50.7 C152.91166,57.0459981 114.305288,62.2594544 60.1059281,66.3403689 L164.790846,97.7533992 L829.093799,97.4368748 C831.678983,97.4334114 833.776269,95.3384651 833.776269,92.7546438 L833.776269,11.96 C833.776269,5.64186246 828.651703,0.52 822.33023,0.52 L677.639226,0.52 L675.618844,0.732924196 C665.509042,1.78188866 657.846453,2.32150009 652.631079,2.35175849 L642.698284,2.40516961 C578.256248,2.72563634 484.661862,2.70783263 361.915127,2.35175849 Z" id="Fill-19" stroke="#F6F6F7" stroke-width="0.5" fill="url(#linearGradient-36)"></path>
                                            <path d="M834,71.76 L834,73.8452517 L220.881083,73.8466081 C220.642853,73.8603562 218.686556,73.9813579 217.072041,74.3338957 C216.377626,74.4902896 215.752653,74.7551166 215.349892,75.0574781 C214.238828,75.8908837 216.252631,75.6267518 214.086057,76.44 L203.947598,74.9122056 L205.577608,74.5077957 C206.660515,74.2341991 208.22612,73.8305469 210.100115,73.3239388 C210.392695,73.250955 210.669535,73.1821417 210.947301,73.1188891 L210.950301,73.0423186 C210.952301,73.0204652 210.955634,73.0035051 210.961189,73.0076756 C214.002727,72.2361325 216.91927,71.76 220.905212,71.76 L834,71.76 Z M834,60.84 L834,69.8599687 L222.374221,69.8587727 C221.760079,69.834991 211.78817,69.4861604 202.467718,71.5133984 C202.190052,71.5758443 201.898504,71.6944916 201.620838,71.7569375 C199.191264,72.3293586 197.039356,73.3042091 195.067931,74.4802742 L180.87922,75.92 L174.812227,69.7982166 L176.052522,69.37867 C176.724677,69.1546278 177.655775,68.8485338 178.810611,68.4792197 L178.852261,68.4701997 L179.751759,68.1922879 C182.675006,67.301182 186.746025,66.1708015 191.486045,65.0245716 C200.454643,62.8597791 211.851889,60.84 222.515172,60.84 L834,60.84 Z" id="Shape" fill="#224A6D"></path>
                                            <path d="M834,80.7206468 L0.280797107,80.7206468 L0.305274574,80.7565424 C0.78659262,81.5192786 5.27618109,90.8201585 15.8053698,92.8584566 C26.5494399,94.9383526 93.0534001,98.088474 120.041144,98.088474 L831.918902,98.088474 C833.068261,98.088474 834,97.1572263 834,96.008474 L834,80.7206468 Z" id="Fill-24" fill="url(#linearGradient-37)"></path>
                                            <g id="shinkansen-train/parts/wheels" transform="translate(113.742193, 84.431526)">
                                                <g id="Group-17">
                                                    <path d="M27.7724668,10.468474 C27.7724668,14.9189373 24.1596807,18.528474 19.7082122,18.528474 C15.2553997,18.528474 11.6439577,14.9189373 11.6439577,10.468474 C11.6439577,6.01801067 15.2553997,2.408474 19.7082122,2.408474 C24.1596807,2.408474 27.7724668,6.01801067 27.7724668,10.468474" id="Fill-5" stroke="#2F2E41" stroke-width="3.15" fill="#000000"></path>
                                                    <path d="M140.67203,10.468474 C140.67203,14.9189373 137.059244,18.528474 132.607776,18.528474 C128.154963,18.528474 124.543521,14.9189373 124.543521,10.468474 C124.543521,6.01801067 128.154963,2.408474 132.607776,2.408474 C137.059244,2.408474 140.67203,6.01801067 140.67203,10.468474" id="Fill-5" stroke="#2F2E41" stroke-width="3.15" fill="#000000"></path>
                                                    <path d="M13.197919,0.328474003 L142.75999,0.328474003 C149.939692,0.328474003 155.75999,6.14877226 155.75999,13.328474 L155.75999,13.328474 L155.75999,13.328474 L0.197919041,13.328474 C0.197919041,6.14877226 6.01821729,0.328474003 13.197919,0.328474003 Z" id="Rectangle" fill="url(#radialGradient-38)"></path>
                                                    <path d="M11.1236832,12.808474 L141.712579,12.808474 C141.712579,9.9365933 139.38446,7.608474 136.512579,7.608474 L16.3236832,7.608474 C13.4518025,7.608474 11.1236832,9.9365933 11.1236832,12.808474 L11.1236832,12.808474 L11.1236832,12.808474 Z" id="Fill-11" fill="#191822"></path>
                                                </g>
                                            </g>
                                            <g id="shinkansen-train/parts/wheels" transform="translate(652.424205, 84.431526)">
                                                <g id="Group-17">
                                                    <path d="M27.7724668,10.468474 C27.7724668,14.9189373 24.1596807,18.528474 19.7082122,18.528474 C15.2553997,18.528474 11.6439577,14.9189373 11.6439577,10.468474 C11.6439577,6.01801067 15.2553997,2.408474 19.7082122,2.408474 C24.1596807,2.408474 27.7724668,6.01801067 27.7724668,10.468474" id="Fill-5" stroke="#2F2E41" stroke-width="3.15" fill="#000000"></path>
                                                    <path d="M140.67203,10.468474 C140.67203,14.9189373 137.059244,18.528474 132.607776,18.528474 C128.154963,18.528474 124.543521,14.9189373 124.543521,10.468474 C124.543521,6.01801067 128.154963,2.408474 132.607776,2.408474 C137.059244,2.408474 140.67203,6.01801067 140.67203,10.468474" id="Fill-5" stroke="#2F2E41" stroke-width="3.15" fill="#000000"></path>
                                                    <path d="M13.197919,0.328474003 L142.75999,0.328474003 C149.939692,0.328474003 155.75999,6.14877226 155.75999,13.328474 L155.75999,13.328474 L155.75999,13.328474 L0.197919041,13.328474 C0.197919041,6.14877226 6.01821729,0.328474003 13.197919,0.328474003 Z" id="Rectangle" fill="url(#radialGradient-38)"></path>
                                                    <path d="M11.1236832,12.808474 L141.712579,12.808474 C141.712579,9.9365933 139.38446,7.608474 136.512579,7.608474 L16.3236832,7.608474 C13.4518025,7.608474 11.1236832,9.9365933 11.1236832,12.808474 L11.1236832,12.808474 L11.1236832,12.808474 Z" id="Fill-11" fill="#191822"></path>
                                                </g>
                                            </g>
                                            <path d="M319.933395,0.328474003 C256.49044,0.328474003 198.652916,38.6581325 197.084446,39.9990057 C195.515976,41.339879 243.840353,2.69303271 349.944267,2.93893235 C419.829066,3.10089289 577.476628,3.10284171 822.886953,2.94477882 C827.857513,2.94158066 831.889543,6.96842036 831.892745,11.9389803 C831.892746,11.9409125 831.892746,11.9428447 831.892746,11.944777 L831.892746,98.088474 L831.892746,98.088474 L833.998696,98.0558943 L833.802837,12.001845 C833.788154,5.55052694 828.554202,0.328474003 822.102868,0.328474003 C654.713043,0.328474003 487.323219,0.328474003 319.933395,0.328474003 Z" id="Fill-19" fill="url(#linearGradient-39)"></path>
                                            <g id="Group-3" transform="translate(305.078767, 25.808474)">
                                                <path d="M15.7069601,18.72 C17.2251267,18.72 18.4556021,19.9716697 18.4556021,21.5159859 L18.4556021,29.9039434 C18.4556021,31.4482596 17.2251267,32.6999293 15.7069601,32.6999293 L2.87996417,32.6999293 C1.36179758,32.6999293 0.13132218,31.4482596 0.13132218,29.9039434 L0.13132218,21.5159859 C0.13132218,19.9716697 1.36179758,18.72 2.87996417,18.72 L15.7069601,18.72 Z M97.0667631,18.72 C98.5849297,18.72 99.8154051,19.9716697 99.8154051,21.5159859 L99.8154051,29.9039434 C99.8154051,31.4482596 98.5849297,32.6999293 97.0667631,32.6999293 L84.2397672,32.6999293 C82.7216006,32.6999293 81.4911252,31.4482596 81.4911252,29.9039434 L81.4911252,21.5159859 C81.4911252,19.9716697 82.7216006,18.72 84.2397672,18.72 L97.0667631,18.72 Z M178.426566,18.72 C179.944733,18.72 181.175208,19.9716697 181.175208,21.5159859 L181.175208,29.9039434 C181.175208,31.4482596 179.944733,32.6999293 178.426566,32.6999293 L165.59957,32.6999293 C164.081404,32.6999293 162.850928,31.4482596 162.850928,29.9039434 L162.850928,21.5159859 C162.850928,19.9716697 164.081404,18.72 165.59957,18.72 L178.426566,18.72 Z M259.786369,18.72 C261.304536,18.72 262.535011,19.9716697 262.535011,21.5159859 L262.535011,29.9039434 C262.535011,31.4482596 261.304536,32.6999293 259.786369,32.6999293 L246.959373,32.6999293 C245.441207,32.6999293 244.210731,31.4482596 244.210731,29.9039434 L244.210731,21.5159859 C244.210731,19.9716697 245.441207,18.72 246.959373,18.72 L259.786369,18.72 Z M341.146172,18.72 C342.664339,18.72 343.894814,19.9716697 343.894814,21.5159859 L343.894814,29.9039434 C343.894814,31.4482596 342.664339,32.6999293 341.146172,32.6999293 L328.319176,32.6999293 C326.80101,32.6999293 325.570534,31.4482596 325.570534,29.9039434 L325.570534,21.5159859 C325.570534,19.9716697 326.80101,18.72 328.319176,18.72 L341.146172,18.72 Z M422.505975,18.72 C424.024142,18.72 425.254617,19.9716697 425.254617,21.5159859 L425.254617,29.9039434 C425.254617,31.4482596 424.024142,32.6999293 422.505975,32.6999293 L409.678979,32.6999293 C408.160812,32.6999293 406.930337,31.4482596 406.930337,29.9039434 L406.930337,21.5159859 C406.930337,19.9716697 408.160812,18.72 409.678979,18.72 L422.505975,18.72 Z M69.9468288,18.72 C71.4649954,18.72 72.6954708,19.9716697 72.6954708,21.5159859 L72.6954708,29.9039434 C72.6954708,31.4482596 71.4649954,32.6999293 69.9468288,32.6999293 L57.1198328,32.6999293 C55.6016662,32.6999293 54.3711908,31.4482596 54.3711908,29.9039434 L54.3711908,21.5159859 C54.3711908,19.9716697 55.6016662,18.72 57.1198328,18.72 L69.9468288,18.72 Z M151.306632,18.72 C152.824798,18.72 154.055274,19.9716697 154.055274,21.5159859 L154.055274,29.9039434 C154.055274,31.4482596 152.824798,32.6999293 151.306632,32.6999293 L138.479636,32.6999293 C136.961469,32.6999293 135.730994,31.4482596 135.730994,29.9039434 L135.730994,21.5159859 C135.730994,19.9716697 136.961469,18.72 138.479636,18.72 L151.306632,18.72 Z M232.666435,18.72 C234.184601,18.72 235.415077,19.9716697 235.415077,21.5159859 L235.415077,29.9039434 C235.415077,31.4482596 234.184601,32.6999293 232.666435,32.6999293 L219.839439,32.6999293 C218.321272,32.6999293 217.090797,31.4482596 217.090797,29.9039434 L217.090797,21.5159859 C217.090797,19.9716697 218.321272,18.72 219.839439,18.72 L232.666435,18.72 Z M314.026238,18.72 C315.544404,18.72 316.77488,19.9716697 316.77488,21.5159859 L316.77488,29.9039434 C316.77488,31.4482596 315.544404,32.6999293 314.026238,32.6999293 L301.199242,32.6999293 C299.681075,32.6999293 298.4506,31.4482596 298.4506,29.9039434 L298.4506,21.5159859 C298.4506,19.9716697 299.681075,18.72 301.199242,18.72 L314.026238,18.72 Z M42.8268945,18.72 C44.3450611,18.72 45.5755365,19.9716697 45.5755365,21.5159859 L45.5755365,29.9039434 C45.5755365,31.4482596 44.3450611,32.6999293 42.8268945,32.6999293 L29.9998985,32.6999293 C28.4817319,32.6999293 27.2512565,31.4482596 27.2512565,29.9039434 L27.2512565,21.5159859 C27.2512565,19.9716697 28.4817319,18.72 29.9998985,18.72 L42.8268945,18.72 Z M124.186697,18.72 C125.704864,18.72 126.935339,19.9716697 126.935339,21.5159859 L126.935339,29.9039434 C126.935339,31.4482596 125.704864,32.6999293 124.186697,32.6999293 L111.359701,32.6999293 C109.841535,32.6999293 108.611059,31.4482596 108.611059,29.9039434 L108.611059,21.5159859 C108.611059,19.9716697 109.841535,18.72 111.359701,18.72 L124.186697,18.72 Z M205.5465,18.72 C207.064667,18.72 208.295142,19.9716697 208.295142,21.5159859 L208.295142,29.9039434 C208.295142,31.4482596 207.064667,32.6999293 205.5465,32.6999293 L192.719504,32.6999293 C191.201338,32.6999293 189.970862,31.4482596 189.970862,29.9039434 L189.970862,21.5159859 C189.970862,19.9716697 191.201338,18.72 192.719504,18.72 L205.5465,18.72 Z M286.906303,18.72 C288.42447,18.72 289.654945,19.9716697 289.654945,21.5159859 L289.654945,29.9039434 C289.654945,31.4482596 288.42447,32.6999293 286.906303,32.6999293 L274.079307,32.6999293 C272.561141,32.6999293 271.330665,31.4482596 271.330665,29.9039434 L271.330665,21.5159859 C271.330665,19.9716697 272.561141,18.72 274.079307,18.72 L286.906303,18.72 Z M368.266106,18.72 C369.784273,18.72 371.014748,19.9716697 371.014748,21.5159859 L371.014748,29.9039434 C371.014748,31.4482596 369.784273,32.6999293 368.266106,32.6999293 L355.43911,32.6999293 C353.920944,32.6999293 352.690468,31.4482596 352.690468,29.9039434 L352.690468,21.5159859 C352.690468,19.9716697 353.920944,18.72 355.43911,18.72 L368.266106,18.72 Z M395.386041,18.72 C396.904207,18.72 398.134683,19.9716697 398.134683,21.5159859 L398.134683,29.9039434 C398.134683,31.4482596 396.904207,32.6999293 395.386041,32.6999293 L382.559045,32.6999293 C381.040878,32.6999293 379.810403,31.4482596 379.810403,29.9039434 L379.810403,21.5159859 C379.810403,19.9716697 381.040878,18.72 382.559045,18.72 L395.386041,18.72 Z" id="Combined-Shape" fill="url(#linearGradient-40)"></path>
                                                <rect id="Rectangle" fill="url(#linearGradient-41)" x="407.177003" y="0.191525997" width="18.209607" height="5.72" rx="1.8"></rect>
                                            </g>
                                            <path d="M239.265616,33.0460637 C239.265616,34.5700599 238.08436,35.8052603 236.62692,35.8052603 L233.108658,35.8052603 C231.651218,35.8052603 230.469962,34.5700599 230.469962,33.0460637 L230.469962,27.5276706 C230.469962,26.0036743 231.651218,24.768474 233.108658,24.768474 L236.62692,24.768474 C238.08436,24.768474 239.265616,26.0036743 239.265616,27.5276706 L239.265616,33.0460637 Z" id="Fill-70" fill="#4C4C4C"></path>
                                            <path d="M141.780447,38.7484033 C178.023907,36.1105743 201.643874,30.8230667 212.640348,22.8858805 C220.719168,17.0546393 212.785151,14.622627 188.838299,15.5898438 C188.581894,15.3098481 183.0901,17.7418603 172.362918,22.8858805 C161.635737,28.0299007 151.441579,33.3174083 141.780447,38.7484033 Z" id="Path-2" fill="url(#linearGradient-42)"></path>
                                        </g>
                                        <g id="drzwi" transform="translate(738.789769, 20.088474)">
                                            <rect id="Rectangle" stroke="#71747C" stroke-width="0.5" fill="url(#linearGradient-43)" x="0" y="0" width="34.8583905" height="58.24" rx="2.7"></rect>
                                            <rect id="Rectangle" fill="url(#linearGradient-44)" x="9.68729618" y="5.911526" width="15.6082346" height="20.28" rx="4.05"></rect>
                                            <path d="M34.8583905,51.671889 L34.8583905,53.7508635 L0,53.751526 L0,51.671526 L34.8583905,51.671889 Z M34.8583905,40.751526 L34.8583905,50.111526 L0,50.1104966 L0,40.751526 L34.8583905,40.751526 Z" id="Shape" fill="#224A6D"></path>
                                        </g>
                                        <g id="drzwi" transform="translate(259.616968, 20.088474)">
                                            <rect id="Rectangle" stroke="#71747C" stroke-width="0.5" fill="url(#linearGradient-45)" x="0" y="0" width="34.8583905" height="58.24" rx="2.7"></rect>
                                            <rect id="Rectangle" fill="url(#linearGradient-44)" x="9.68729618" y="5.911526" width="15.6082346" height="20.28" rx="4.05"></rect>
                                            <path d="M34.8583905,51.671889 L34.8583905,53.7508635 L0,53.751526 L0,51.671526 L34.8583905,51.671889 Z M34.8583905,40.751526 L34.8583905,50.111526 L0,50.1104966 L0,40.751526 L34.8583905,40.751526 Z" id="Shape" fill="#224A6D"></path>
                                        </g>
                                        <path d="M264.919608,80.6881884 C264.919608,80.6881884 208.788652,63.5304293 144.943462,63.5281883 C123.429642,63.527814 49.2492108,64.9918863 13.7608537,70.2 C2.30784278,71.880793 -1.64383388,75.3768558 1.90582368,80.6881884 L264.919608,80.6881884 Z" id="Fill-29" stroke="#E7E8EC" stroke-width="0.5" fill="url(#linearGradient-46)"></path>
                                        <path d="M1.81818848,68.5588173 L25.7515547,67.4901844 C26.2509427,67.4678866 26.6738526,67.8546446 26.6961504,68.3540325 C26.7173493,68.8288086 26.367745,69.2391219 25.8956251,69.2935694 L1.80801639,72.0714893 C0.91801544,72.1741292 0.113320982,71.5358471 0.0106810166,70.6458461 C0.00356620921,70.5841529 7.60531139e-18,70.5221021 0,70.46 C-1.2467266e-16,69.4419705 0.801172244,68.6042274 1.81818848,68.5588173 Z" id="Rectangle" fill="#4C4C4C" transform="translate(25.751555, 69.310184) scale(-1, -1) translate(-25.751555, -69.310184) "></path>
                                        <g id="drzwi" transform="translate(224.758578, 20.088474)">
                                            <rect id="Rectangle" stroke="#71747C" stroke-width="0.5" fill="url(#linearGradient-47)" x="0" y="0" width="20.2907049" height="58.24" rx="2.7"></rect>
                                            <rect id="Rectangle" fill="url(#linearGradient-48)" x="3.96427684" y="5.911526" width="12.4865876" height="20.28" rx="1.8"></rect>
                                            <path d="M20.2907049,51.671889 L20.2907049,53.7508635 L10.5067245,53.7519119 C7.22036854,53.1076463 3.70995335,52.4528058 0.00097797426,51.8043665 L-1.18296722e-13,51.671526 L20.2907049,51.671889 Z M20.2907049,40.751526 L20.2907049,50.111526 L-1.18296722e-13,50.1104966 L-1.18296722e-13,40.751526 L20.2907049,40.751526 Z" id="Combined-Shape" fill="#224A6D"></path>
                                        </g>
                                    </g>
                                    <g id="logo/green-car-logo" transform="translate(789.776669, 20.800000)">
                                        <g fill="#16AF55" id="Combined-Shape">
                                            <path d="M1.48831576,29.44 C1.81170289,29.44 2.17551341,29.4762093 2.57974733,29.548628 L2.57974733,29.548628 L2.77267715,29.5866478 L2.75062802,30.064611 L2.48934592,30.0333262 C2.1483195,29.9962478 1.8366919,29.9777086 1.55446313,29.9777086 C1.20167717,29.9777086 0.96005554,30.0754738 0.829598232,30.2710042 C0.699140924,30.4665347 0.63391227,30.828628 0.63391227,31.3572843 C0.63391227,31.8859406 0.69546607,32.2507496 0.818573671,32.4517115 C0.941681271,32.6526733 1.19065261,32.7531542 1.56548769,32.7531542 C1.83375202,32.7531542 2.03403155,32.73686 2.16632628,32.7042716 L2.16632628,32.7042716 L2.16632628,31.7972277 L1.69778243,31.7972277 L1.69778243,31.2649505 L2.77267715,31.2649505 L2.77267715,33.1550778 L2.71456852,33.1679019 C2.60355732,33.189527 2.42172862,33.2124092 2.16908242,33.2365488 C1.86590699,33.2655163 1.64633448,33.28 1.51036489,33.28 C0.937087704,33.28 0.542040927,33.1242999 0.325224556,32.8128996 C0.108408185,32.5014993 0,32.0135785 0,31.3491372 C0,30.6846959 0.111164326,30.200396 0.333492977,29.8962376 C0.555821628,29.5920792 0.940762558,29.44 1.48831576,29.44 Z M19.3040067,29.44 C19.6310687,29.44 19.9912043,29.4852617 20.3844137,29.575785 L20.3844137,29.575785 L20.3623646,30.064611 L20.0316277,30.0163319 C19.8111365,29.9905831 19.5906453,29.9777086 19.3701541,29.9777086 C19.0394172,29.9777086 18.8152512,30.0745686 18.6976558,30.2682885 C18.5800605,30.4620085 18.5212629,30.8259123 18.5212629,31.36 C18.5212629,31.8940877 18.5782231,32.2579915 18.6921436,32.4517115 C18.806064,32.6454314 19.0283927,32.7422914 19.3591295,32.7422914 C19.6898663,32.7422914 20.024278,32.7151344 20.3623646,32.6608204 L20.3623646,32.6608204 L20.3789014,33.1605092 L20.0988087,33.2127864 C19.8225056,33.2575955 19.5575716,33.28 19.3040067,33.28 C18.7527786,33.28 18.3788623,33.1297313 18.1822576,32.8291938 C17.9856529,32.5286563 17.8873506,32.0343989 17.8873506,31.3464215 C17.8873506,30.6584441 17.9865716,30.1687129 18.1850137,29.8772277 C18.3834558,29.5857426 18.7564535,29.44 19.3040067,29.44 Z M4.97207711,29.4997454 L5.12693774,29.5043706 C5.87626339,29.5506223 6.25092621,29.9437624 6.25092621,30.6837907 C6.25092621,31.212447 6.0451344,31.5709194 5.63355078,31.7592079 L5.63355078,31.7592079 L6.25643849,33.2202546 L5.58394026,33.2202546 L5.03822448,31.8949929 L4.1507473,31.8949929 L4.1507473,33.2202546 L3.53888415,33.2202546 L3.53888415,29.4997454 L4.97207711,29.4997454 Z M9.32677879,29.4997454 L9.32677879,30.0265912 L7.55733672,30.0265912 L7.55733672,31.0802829 L8.99604196,31.0802829 L8.99604196,31.6016973 L7.55733672,31.6016973 L7.55733672,32.6879774 L9.32677879,32.6879774 L9.32677879,33.2202546 L6.94547357,33.2202546 L6.94547357,29.4997454 L9.32677879,29.4997454 Z M12.37507,29.4997454 L12.37507,30.0265912 L10.6056279,30.0265912 L10.6056279,31.0802829 L12.0443331,31.0802829 L12.0443331,31.6016973 L10.6056279,31.6016973 L10.6056279,32.6879774 L12.37507,32.6879774 L12.37507,33.2202546 L9.99376475,33.2202546 L9.99376475,29.4997454 L12.37507,29.4997454 Z M14.1114384,29.4997454 L15.2579927,32.6879774 L15.3406769,32.6879774 L15.3406769,29.4997454 L15.9525401,29.4997454 L15.9525401,33.2202546 L14.9052068,33.2202546 L13.731091,30.0265912 L13.6539191,30.0265912 L13.6539191,33.2202546 L13.0420559,33.2202546 L13.0420559,29.4997454 L14.1114384,29.4997454 Z M22.8594277,29.4997454 L23.7965154,33.2202546 L23.17914,33.2202546 L22.9751856,32.4218388 L21.5254558,32.4218388 L21.3215014,33.2202546 L20.7096383,33.2202546 L21.6412137,29.4997454 L22.8594277,29.4997454 Z M25.7699119,29.4997454 L25.9247725,29.5043706 C26.6740981,29.5506223 27.048761,29.9437624 27.048761,30.6837907 C27.048761,31.212447 26.8429691,31.5709194 26.4313855,31.7592079 L26.4313855,31.7592079 L27.0542732,33.2202546 L26.381775,33.2202546 L25.8360592,31.8949929 L24.948582,31.8949929 L24.948582,33.2202546 L24.3367189,33.2202546 L24.3367189,29.4997454 L25.7699119,29.4997454 Z M22.3908838,30.0048656 L22.1152698,30.0048656 L21.646726,31.8895615 L22.8539154,31.8895615 L22.3908838,30.0048656 Z M4.97207711,30.0211598 L4.1507473,30.0211598 L4.1507473,31.3735785 L4.98310167,31.3735785 C5.2035929,31.3735785 5.36528646,31.3111174 5.46818237,31.1861952 C5.57107827,31.061273 5.62252622,30.8956153 5.62252622,30.6892221 C5.62252622,30.2438472 5.40570985,30.0211598 4.97207711,30.0211598 L4.97207711,30.0211598 Z M25.7699119,30.0211598 L24.948582,30.0211598 L24.948582,31.3735785 L25.7809364,31.3735785 C26.0014276,31.3735785 26.1631212,31.3111174 26.2660171,31.1861952 C26.368913,31.061273 26.420361,30.8956153 26.420361,30.6892221 C26.420361,30.2438472 26.2035446,30.0211598 25.7699119,30.0211598 L25.7699119,30.0211598 Z M13.5271322,13.9733333 L22.1487522,22.0951441 C23.2839265,23.1645106 23.3402678,24.9548327 22.2745939,26.0939404 C21.7416977,26.6635576 20.9977707,26.9866667 20.2191789,26.9866667 L6.83508552,26.9866667 C5.27807506,26.9866667 4.01586868,25.7200867 4.01586868,24.1576812 C4.01586868,23.3763915 4.33786199,22.6298868 4.90551229,22.0951441 L13.5271322,13.9733333 Z M2.80283741,4.90666667 C3.51352388,4.90666667 4.19767428,5.18098143 4.71684989,5.674103 L12.8930521,13.4399949 L4.71684989,21.2058869 C3.58602023,22.2799676 1.81236908,22.2192201 0.755289176,21.0702035 C0.269972843,20.5426781 0,19.8475246 0,19.1254084 L0,7.75458153 C0,6.18172158 1.25487305,4.90666667 2.80283741,4.90666667 Z M26.2989841,5.8097965 C26.7843004,6.3373219 27.0542732,7.03247535 27.0542732,7.75459164 L27.0542732,19.1254185 C27.0542732,20.6982784 25.7994002,21.9733333 24.2514358,21.9733333 C23.5407494,21.9733333 22.856599,21.6990186 22.3374233,21.205897 L14.1612211,13.4400051 L22.3374233,5.67411312 C23.468253,4.60003242 25.2419042,4.66077994 26.2989841,5.8097965 Z M20.2191877,0 C21.7761982,0 23.0384046,1.26657995 23.0384046,2.82898551 C23.0384046,3.61027516 22.7164112,4.35677986 22.148761,4.89152255 L13.527141,13.0133333 L4.90552108,4.89152255 C3.77034673,3.82215609 3.71400547,2.031834 4.77967935,0.892726242 C5.31257554,0.323109027 6.05650251,0 6.83509432,0 L20.2191877,0 Z"></path>
                                        </g>
                                    </g>
                                </g>
                            </g>
                        </g>
                        <g id="Group-3" transform="translate(38.000000, 180.000000)"></g>
                    </g>
                </g>
            </g>
        </g>
    </g>
</svg>